<mxfile host="app.diagrams.net" modified="2023-05-20T17:46:53.447Z" agent="Mozilla/5.0 (Windows NT 10.0; Win64; x64) AppleWebKit/537.36 (KHTML, like Gecko) Chrome/113.0.0.0 Safari/537.36" etag="jSraNSIPhau2lEbIjpBi" version="21.3.2" type="device">
  <diagram name="Страница 1" id="5PX_qYvqu08WavRpdu_r">
    <mxGraphModel dx="1954" dy="770" grid="1" gridSize="10" guides="1" tooltips="1" connect="1" arrows="1" fold="1" page="1" pageScale="1" pageWidth="827" pageHeight="1169" math="0" shadow="0">
      <root>
        <mxCell id="0" />
        <mxCell id="1" parent="0" />
        <mxCell id="HDSiYh7JOPLEq96-NY4h-1" value="" style="shape=table;startSize=0;container=1;collapsible=0;childLayout=tableLayout;" vertex="1" parent="1">
          <mxGeometry x="-270" y="520" width="180" height="280" as="geometry" />
        </mxCell>
        <mxCell id="HDSiYh7JOPLEq96-NY4h-2" value="" style="shape=tableRow;horizontal=0;startSize=0;swimlaneHead=0;swimlaneBody=0;strokeColor=inherit;top=0;left=0;bottom=0;right=0;collapsible=0;dropTarget=0;fillColor=none;points=[[0,0.5],[1,0.5]];portConstraint=eastwest;" vertex="1" parent="HDSiYh7JOPLEq96-NY4h-1">
          <mxGeometry width="180" height="40" as="geometry" />
        </mxCell>
        <mxCell id="HDSiYh7JOPLEq96-NY4h-3" value="&lt;b&gt;Товар&lt;/b&gt;" style="shape=partialRectangle;html=1;whiteSpace=wrap;connectable=0;strokeColor=inherit;overflow=hidden;fillColor=#FFFF00;top=0;left=0;bottom=0;right=0;pointerEvents=1;" vertex="1" parent="HDSiYh7JOPLEq96-NY4h-2">
          <mxGeometry width="180" height="40" as="geometry">
            <mxRectangle width="180" height="40" as="alternateBounds" />
          </mxGeometry>
        </mxCell>
        <mxCell id="HDSiYh7JOPLEq96-NY4h-12" style="shape=tableRow;horizontal=0;startSize=0;swimlaneHead=0;swimlaneBody=0;strokeColor=inherit;top=0;left=0;bottom=0;right=0;collapsible=0;dropTarget=0;fillColor=none;points=[[0,0.5],[1,0.5]];portConstraint=eastwest;" vertex="1" parent="HDSiYh7JOPLEq96-NY4h-1">
          <mxGeometry y="40" width="180" height="40" as="geometry" />
        </mxCell>
        <mxCell id="HDSiYh7JOPLEq96-NY4h-13" value="id (счётчик)" style="shape=partialRectangle;html=1;whiteSpace=wrap;connectable=0;strokeColor=inherit;overflow=hidden;fillColor=#B9E0A5;top=0;left=0;bottom=0;right=0;pointerEvents=1;" vertex="1" parent="HDSiYh7JOPLEq96-NY4h-12">
          <mxGeometry width="180" height="40" as="geometry">
            <mxRectangle width="180" height="40" as="alternateBounds" />
          </mxGeometry>
        </mxCell>
        <mxCell id="HDSiYh7JOPLEq96-NY4h-4" value="" style="shape=tableRow;horizontal=0;startSize=0;swimlaneHead=0;swimlaneBody=0;strokeColor=inherit;top=0;left=0;bottom=0;right=0;collapsible=0;dropTarget=0;fillColor=none;points=[[0,0.5],[1,0.5]];portConstraint=eastwest;" vertex="1" parent="HDSiYh7JOPLEq96-NY4h-1">
          <mxGeometry y="80" width="180" height="40" as="geometry" />
        </mxCell>
        <mxCell id="HDSiYh7JOPLEq96-NY4h-5" value="Название (текст)" style="shape=partialRectangle;html=1;whiteSpace=wrap;connectable=0;strokeColor=inherit;overflow=hidden;fillColor=none;top=0;left=0;bottom=0;right=0;pointerEvents=1;" vertex="1" parent="HDSiYh7JOPLEq96-NY4h-4">
          <mxGeometry width="180" height="40" as="geometry">
            <mxRectangle width="180" height="40" as="alternateBounds" />
          </mxGeometry>
        </mxCell>
        <mxCell id="HDSiYh7JOPLEq96-NY4h-6" value="" style="shape=tableRow;horizontal=0;startSize=0;swimlaneHead=0;swimlaneBody=0;strokeColor=inherit;top=0;left=0;bottom=0;right=0;collapsible=0;dropTarget=0;fillColor=none;points=[[0,0.5],[1,0.5]];portConstraint=eastwest;" vertex="1" parent="HDSiYh7JOPLEq96-NY4h-1">
          <mxGeometry y="120" width="180" height="40" as="geometry" />
        </mxCell>
        <mxCell id="HDSiYh7JOPLEq96-NY4h-7" value="Описание (текст)" style="shape=partialRectangle;html=1;whiteSpace=wrap;connectable=0;strokeColor=inherit;overflow=hidden;fillColor=none;top=0;left=0;bottom=0;right=0;pointerEvents=1;" vertex="1" parent="HDSiYh7JOPLEq96-NY4h-6">
          <mxGeometry width="180" height="40" as="geometry">
            <mxRectangle width="180" height="40" as="alternateBounds" />
          </mxGeometry>
        </mxCell>
        <mxCell id="HDSiYh7JOPLEq96-NY4h-8" value="" style="shape=tableRow;horizontal=0;startSize=0;swimlaneHead=0;swimlaneBody=0;strokeColor=inherit;top=0;left=0;bottom=0;right=0;collapsible=0;dropTarget=0;fillColor=none;points=[[0,0.5],[1,0.5]];portConstraint=eastwest;" vertex="1" parent="HDSiYh7JOPLEq96-NY4h-1">
          <mxGeometry y="160" width="180" height="40" as="geometry" />
        </mxCell>
        <mxCell id="HDSiYh7JOPLEq96-NY4h-9" value="Кол-во на складе (число)" style="shape=partialRectangle;html=1;whiteSpace=wrap;connectable=0;strokeColor=inherit;overflow=hidden;fillColor=none;top=0;left=0;bottom=0;right=0;pointerEvents=1;" vertex="1" parent="HDSiYh7JOPLEq96-NY4h-8">
          <mxGeometry width="180" height="40" as="geometry">
            <mxRectangle width="180" height="40" as="alternateBounds" />
          </mxGeometry>
        </mxCell>
        <mxCell id="HDSiYh7JOPLEq96-NY4h-10" value="" style="shape=tableRow;horizontal=0;startSize=0;swimlaneHead=0;swimlaneBody=0;strokeColor=inherit;top=0;left=0;bottom=0;right=0;collapsible=0;dropTarget=0;fillColor=none;points=[[0,0.5],[1,0.5]];portConstraint=eastwest;" vertex="1" parent="HDSiYh7JOPLEq96-NY4h-1">
          <mxGeometry y="200" width="180" height="40" as="geometry" />
        </mxCell>
        <mxCell id="HDSiYh7JOPLEq96-NY4h-11" value="Цена (число)" style="shape=partialRectangle;html=1;whiteSpace=wrap;connectable=0;strokeColor=inherit;overflow=hidden;fillColor=none;top=0;left=0;bottom=0;right=0;pointerEvents=1;" vertex="1" parent="HDSiYh7JOPLEq96-NY4h-10">
          <mxGeometry width="180" height="40" as="geometry">
            <mxRectangle width="180" height="40" as="alternateBounds" />
          </mxGeometry>
        </mxCell>
        <mxCell id="HDSiYh7JOPLEq96-NY4h-23" style="shape=tableRow;horizontal=0;startSize=0;swimlaneHead=0;swimlaneBody=0;strokeColor=inherit;top=0;left=0;bottom=0;right=0;collapsible=0;dropTarget=0;fillColor=none;points=[[0,0.5],[1,0.5]];portConstraint=eastwest;" vertex="1" parent="HDSiYh7JOPLEq96-NY4h-1">
          <mxGeometry y="240" width="180" height="40" as="geometry" />
        </mxCell>
        <mxCell id="HDSiYh7JOPLEq96-NY4h-24" value="category_id" style="shape=partialRectangle;html=1;whiteSpace=wrap;connectable=0;strokeColor=inherit;overflow=hidden;fillColor=#FFB570;top=0;left=0;bottom=0;right=0;pointerEvents=1;" vertex="1" parent="HDSiYh7JOPLEq96-NY4h-23">
          <mxGeometry width="180" height="40" as="geometry">
            <mxRectangle width="180" height="40" as="alternateBounds" />
          </mxGeometry>
        </mxCell>
        <mxCell id="HDSiYh7JOPLEq96-NY4h-14" value="" style="shape=table;startSize=0;container=1;collapsible=0;childLayout=tableLayout;" vertex="1" parent="1">
          <mxGeometry x="-460" y="520" width="130" height="130" as="geometry" />
        </mxCell>
        <mxCell id="HDSiYh7JOPLEq96-NY4h-15" value="" style="shape=tableRow;horizontal=0;startSize=0;swimlaneHead=0;swimlaneBody=0;strokeColor=inherit;top=0;left=0;bottom=0;right=0;collapsible=0;dropTarget=0;fillColor=none;points=[[0,0.5],[1,0.5]];portConstraint=eastwest;" vertex="1" parent="HDSiYh7JOPLEq96-NY4h-14">
          <mxGeometry width="130" height="41" as="geometry" />
        </mxCell>
        <mxCell id="HDSiYh7JOPLEq96-NY4h-16" value="&lt;b&gt;Категория&lt;/b&gt;" style="shape=partialRectangle;html=1;whiteSpace=wrap;connectable=0;strokeColor=inherit;overflow=hidden;fillColor=#FFFF00;top=0;left=0;bottom=0;right=0;pointerEvents=1;" vertex="1" parent="HDSiYh7JOPLEq96-NY4h-15">
          <mxGeometry width="130" height="41" as="geometry">
            <mxRectangle width="130" height="41" as="alternateBounds" />
          </mxGeometry>
        </mxCell>
        <mxCell id="HDSiYh7JOPLEq96-NY4h-17" value="" style="shape=tableRow;horizontal=0;startSize=0;swimlaneHead=0;swimlaneBody=0;strokeColor=#000000;top=0;left=0;bottom=0;right=0;collapsible=0;dropTarget=0;fillColor=none;points=[[0,0.5],[1,0.5]];portConstraint=eastwest;" vertex="1" parent="HDSiYh7JOPLEq96-NY4h-14">
          <mxGeometry y="41" width="130" height="42" as="geometry" />
        </mxCell>
        <mxCell id="HDSiYh7JOPLEq96-NY4h-18" value="id (счётчик)" style="shape=partialRectangle;html=1;whiteSpace=wrap;connectable=0;strokeColor=#000000;overflow=hidden;fillColor=#B9E0A5;top=0;left=0;bottom=0;right=0;pointerEvents=1;" vertex="1" parent="HDSiYh7JOPLEq96-NY4h-17">
          <mxGeometry width="130" height="42" as="geometry">
            <mxRectangle width="130" height="42" as="alternateBounds" />
          </mxGeometry>
        </mxCell>
        <mxCell id="HDSiYh7JOPLEq96-NY4h-19" value="" style="shape=tableRow;horizontal=0;startSize=0;swimlaneHead=0;swimlaneBody=0;strokeColor=inherit;top=0;left=0;bottom=0;right=0;collapsible=0;dropTarget=0;fillColor=none;points=[[0,0.5],[1,0.5]];portConstraint=eastwest;" vertex="1" parent="HDSiYh7JOPLEq96-NY4h-14">
          <mxGeometry y="83" width="130" height="47" as="geometry" />
        </mxCell>
        <mxCell id="HDSiYh7JOPLEq96-NY4h-20" value="Название (текст)" style="shape=partialRectangle;html=1;whiteSpace=wrap;connectable=0;strokeColor=inherit;overflow=hidden;fillColor=none;top=0;left=0;bottom=0;right=0;pointerEvents=1;" vertex="1" parent="HDSiYh7JOPLEq96-NY4h-19">
          <mxGeometry width="130" height="47" as="geometry">
            <mxRectangle width="130" height="47" as="alternateBounds" />
          </mxGeometry>
        </mxCell>
        <mxCell id="HDSiYh7JOPLEq96-NY4h-25" value="" style="shape=table;startSize=0;container=1;collapsible=0;childLayout=tableLayout;" vertex="1" parent="1">
          <mxGeometry x="150" y="560" width="90" height="160" as="geometry" />
        </mxCell>
        <mxCell id="HDSiYh7JOPLEq96-NY4h-26" value="" style="shape=tableRow;horizontal=0;startSize=0;swimlaneHead=0;swimlaneBody=0;strokeColor=inherit;top=0;left=0;bottom=0;right=0;collapsible=0;dropTarget=0;fillColor=none;points=[[0,0.5],[1,0.5]];portConstraint=eastwest;" vertex="1" parent="HDSiYh7JOPLEq96-NY4h-25">
          <mxGeometry width="90" height="40" as="geometry" />
        </mxCell>
        <mxCell id="HDSiYh7JOPLEq96-NY4h-27" value="&lt;b&gt;Покупатель&lt;/b&gt;" style="shape=partialRectangle;html=1;whiteSpace=wrap;connectable=0;strokeColor=#000000;overflow=hidden;fillColor=#FFFF00;top=0;left=0;bottom=0;right=0;pointerEvents=1;" vertex="1" parent="HDSiYh7JOPLEq96-NY4h-26">
          <mxGeometry width="90" height="40" as="geometry">
            <mxRectangle width="90" height="40" as="alternateBounds" />
          </mxGeometry>
        </mxCell>
        <mxCell id="HDSiYh7JOPLEq96-NY4h-28" value="" style="shape=tableRow;horizontal=0;startSize=0;swimlaneHead=0;swimlaneBody=0;strokeColor=inherit;top=0;left=0;bottom=0;right=0;collapsible=0;dropTarget=0;fillColor=none;points=[[0,0.5],[1,0.5]];portConstraint=eastwest;" vertex="1" parent="HDSiYh7JOPLEq96-NY4h-25">
          <mxGeometry y="40" width="90" height="40" as="geometry" />
        </mxCell>
        <mxCell id="HDSiYh7JOPLEq96-NY4h-29" value="id (счётчик)" style="shape=partialRectangle;html=1;whiteSpace=wrap;connectable=0;strokeColor=inherit;overflow=hidden;fillColor=#B9E0A5;top=0;left=0;bottom=0;right=0;pointerEvents=1;shadow=0;" vertex="1" parent="HDSiYh7JOPLEq96-NY4h-28">
          <mxGeometry width="90" height="40" as="geometry">
            <mxRectangle width="90" height="40" as="alternateBounds" />
          </mxGeometry>
        </mxCell>
        <mxCell id="HDSiYh7JOPLEq96-NY4h-30" value="" style="shape=tableRow;horizontal=0;startSize=0;swimlaneHead=0;swimlaneBody=0;strokeColor=inherit;top=0;left=0;bottom=0;right=0;collapsible=0;dropTarget=0;fillColor=none;points=[[0,0.5],[1,0.5]];portConstraint=eastwest;" vertex="1" parent="HDSiYh7JOPLEq96-NY4h-25">
          <mxGeometry y="80" width="90" height="40" as="geometry" />
        </mxCell>
        <mxCell id="HDSiYh7JOPLEq96-NY4h-31" value="ФИО" style="shape=partialRectangle;html=1;whiteSpace=wrap;connectable=0;strokeColor=inherit;overflow=hidden;fillColor=none;top=0;left=0;bottom=0;right=0;pointerEvents=1;" vertex="1" parent="HDSiYh7JOPLEq96-NY4h-30">
          <mxGeometry width="90" height="40" as="geometry">
            <mxRectangle width="90" height="40" as="alternateBounds" />
          </mxGeometry>
        </mxCell>
        <mxCell id="HDSiYh7JOPLEq96-NY4h-32" value="" style="shape=tableRow;horizontal=0;startSize=0;swimlaneHead=0;swimlaneBody=0;strokeColor=inherit;top=0;left=0;bottom=0;right=0;collapsible=0;dropTarget=0;fillColor=none;points=[[0,0.5],[1,0.5]];portConstraint=eastwest;" vertex="1" parent="HDSiYh7JOPLEq96-NY4h-25">
          <mxGeometry y="120" width="90" height="40" as="geometry" />
        </mxCell>
        <mxCell id="HDSiYh7JOPLEq96-NY4h-33" value="номер телефона" style="shape=partialRectangle;html=1;whiteSpace=wrap;connectable=0;strokeColor=inherit;overflow=hidden;fillColor=none;top=0;left=0;bottom=0;right=0;pointerEvents=1;" vertex="1" parent="HDSiYh7JOPLEq96-NY4h-32">
          <mxGeometry width="90" height="40" as="geometry">
            <mxRectangle width="90" height="40" as="alternateBounds" />
          </mxGeometry>
        </mxCell>
        <mxCell id="HDSiYh7JOPLEq96-NY4h-34" value="" style="shape=table;startSize=0;container=1;collapsible=0;childLayout=tableLayout;" vertex="1" parent="1">
          <mxGeometry x="-10" y="560" width="90" height="160" as="geometry" />
        </mxCell>
        <mxCell id="HDSiYh7JOPLEq96-NY4h-35" value="" style="shape=tableRow;horizontal=0;startSize=0;swimlaneHead=0;swimlaneBody=0;strokeColor=inherit;top=0;left=0;bottom=0;right=0;collapsible=0;dropTarget=0;fillColor=none;points=[[0,0.5],[1,0.5]];portConstraint=eastwest;" vertex="1" parent="HDSiYh7JOPLEq96-NY4h-34">
          <mxGeometry width="90" height="40" as="geometry" />
        </mxCell>
        <mxCell id="HDSiYh7JOPLEq96-NY4h-36" value="&lt;b&gt;Заказ&lt;/b&gt;" style="shape=partialRectangle;html=1;whiteSpace=wrap;connectable=0;strokeColor=inherit;overflow=hidden;fillColor=#FFFF00;top=0;left=0;bottom=0;right=0;pointerEvents=1;" vertex="1" parent="HDSiYh7JOPLEq96-NY4h-35">
          <mxGeometry width="90" height="40" as="geometry">
            <mxRectangle width="90" height="40" as="alternateBounds" />
          </mxGeometry>
        </mxCell>
        <mxCell id="HDSiYh7JOPLEq96-NY4h-37" value="" style="shape=tableRow;horizontal=0;startSize=0;swimlaneHead=0;swimlaneBody=0;strokeColor=inherit;top=0;left=0;bottom=0;right=0;collapsible=0;dropTarget=0;fillColor=none;points=[[0,0.5],[1,0.5]];portConstraint=eastwest;" vertex="1" parent="HDSiYh7JOPLEq96-NY4h-34">
          <mxGeometry y="40" width="90" height="40" as="geometry" />
        </mxCell>
        <mxCell id="HDSiYh7JOPLEq96-NY4h-38" value="id (счётчик)" style="shape=partialRectangle;html=1;whiteSpace=wrap;connectable=0;strokeColor=inherit;overflow=hidden;fillColor=#B9E0A5;top=0;left=0;bottom=0;right=0;pointerEvents=1;" vertex="1" parent="HDSiYh7JOPLEq96-NY4h-37">
          <mxGeometry width="90" height="40" as="geometry">
            <mxRectangle width="90" height="40" as="alternateBounds" />
          </mxGeometry>
        </mxCell>
        <mxCell id="HDSiYh7JOPLEq96-NY4h-39" value="" style="shape=tableRow;horizontal=0;startSize=0;swimlaneHead=0;swimlaneBody=0;strokeColor=inherit;top=0;left=0;bottom=0;right=0;collapsible=0;dropTarget=0;fillColor=#FFB570;points=[[0,0.5],[1,0.5]];portConstraint=eastwest;" vertex="1" parent="HDSiYh7JOPLEq96-NY4h-34">
          <mxGeometry y="80" width="90" height="40" as="geometry" />
        </mxCell>
        <mxCell id="HDSiYh7JOPLEq96-NY4h-40" value="item_id" style="shape=partialRectangle;html=1;whiteSpace=wrap;connectable=0;strokeColor=inherit;overflow=hidden;fillColor=none;top=0;left=0;bottom=0;right=0;pointerEvents=1;" vertex="1" parent="HDSiYh7JOPLEq96-NY4h-39">
          <mxGeometry width="90" height="40" as="geometry">
            <mxRectangle width="90" height="40" as="alternateBounds" />
          </mxGeometry>
        </mxCell>
        <mxCell id="HDSiYh7JOPLEq96-NY4h-41" value="" style="shape=tableRow;horizontal=0;startSize=0;swimlaneHead=0;swimlaneBody=0;strokeColor=inherit;top=0;left=0;bottom=0;right=0;collapsible=0;dropTarget=0;fillColor=none;points=[[0,0.5],[1,0.5]];portConstraint=eastwest;" vertex="1" parent="HDSiYh7JOPLEq96-NY4h-34">
          <mxGeometry y="120" width="90" height="40" as="geometry" />
        </mxCell>
        <mxCell id="HDSiYh7JOPLEq96-NY4h-42" value="id_покупателя" style="shape=partialRectangle;html=1;whiteSpace=wrap;connectable=0;strokeColor=inherit;overflow=hidden;fillColor=#FFB570;top=0;left=0;bottom=0;right=0;pointerEvents=1;" vertex="1" parent="HDSiYh7JOPLEq96-NY4h-41">
          <mxGeometry width="90" height="40" as="geometry">
            <mxRectangle width="90" height="40" as="alternateBounds" />
          </mxGeometry>
        </mxCell>
        <mxCell id="HDSiYh7JOPLEq96-NY4h-43" style="edgeStyle=orthogonalEdgeStyle;rounded=0;orthogonalLoop=1;jettySize=auto;html=1;exitX=1;exitY=0.5;exitDx=0;exitDy=0;entryX=0;entryY=0.5;entryDx=0;entryDy=0;" edge="1" parent="1" source="HDSiYh7JOPLEq96-NY4h-17" target="HDSiYh7JOPLEq96-NY4h-23">
          <mxGeometry relative="1" as="geometry" />
        </mxCell>
        <mxCell id="HDSiYh7JOPLEq96-NY4h-44" style="edgeStyle=orthogonalEdgeStyle;rounded=0;orthogonalLoop=1;jettySize=auto;html=1;exitX=1;exitY=0.5;exitDx=0;exitDy=0;" edge="1" parent="1" source="HDSiYh7JOPLEq96-NY4h-12" target="HDSiYh7JOPLEq96-NY4h-39">
          <mxGeometry relative="1" as="geometry" />
        </mxCell>
        <mxCell id="HDSiYh7JOPLEq96-NY4h-46" style="edgeStyle=orthogonalEdgeStyle;rounded=0;orthogonalLoop=1;jettySize=auto;html=1;exitX=0;exitY=0.5;exitDx=0;exitDy=0;" edge="1" parent="1" source="HDSiYh7JOPLEq96-NY4h-28" target="HDSiYh7JOPLEq96-NY4h-41">
          <mxGeometry relative="1" as="geometry" />
        </mxCell>
      </root>
    </mxGraphModel>
  </diagram>
</mxfile>
